<svg width="212" height="181" viewBox="0 0 212 181" fill="none" xmlns="http://www.w3.org/2000/svg">
<rect width="180" height="180" rx="90" fill="url(#paint0_linear_487_8523)"/>
<path d="M133.5 169C124.662 156.3 118.638 143.913 116.926 129.516C125.628 125.345 134.215 121.231 142 117.5C146.703 128.386 151.686 137.699 157 150C151.5 156 142.5 164.5 133.5 169Z" fill="url(#paint1_linear_487_8523)"/>
<path d="M37.2359 162.545C15.3228 151.832 12.5062 122.621 32.342 107.439C38.0567 111.391 43.728 115.312 48.4899 118.604C44.6711 133.515 40.9681 147.973 37.2359 162.545Z" fill="url(#paint2_linear_487_8523)"/>
<path d="M171.945 127.05C163.879 121.599 160.382 114.316 156.973 105.906C173.6 101.617 189.868 97.4799 207.324 99.2801C193.032 105.904 182.026 115.548 171.945 127.05Z" fill="url(#paint3_linear_487_8523)"/>
<path d="M71.1758 132C80.7315 133.363 89.6628 134.636 99.2164 135.999C98.413 150.985 100.646 162.4 108.5 178C99.5 180.5 90.8123 180.542 82.8093 180.031C81.7277 179.962 80.6575 179.687 79.5867 179.482C67.1439 177.111 68.6524 180.327 66.6159 165.994C64.9643 154.37 66.6843 142.901 71.1758 132Z" fill="url(#paint4_linear_487_8523)"/>
<defs>
<linearGradient id="paint0_linear_487_8523" x1="103" y1="180" x2="90" y2="38" gradientUnits="userSpaceOnUse">
<stop offset="0.185" stop-color="#D1F5E9"/>
<stop offset="1" stop-color="#A2EBD3"/>
</linearGradient>
<linearGradient id="paint1_linear_487_8523" x1="157" y1="169" x2="107.81" y2="157.902" gradientUnits="userSpaceOnUse">
<stop stop-color="#17CE92"/>
<stop offset="1" stop-color="#2CEAAB"/>
</linearGradient>
<linearGradient id="paint2_linear_487_8523" x1="48.4899" y1="162.545" x2="11.344" y2="156.782" gradientUnits="userSpaceOnUse">
<stop stop-color="#17CE92"/>
<stop offset="1" stop-color="#2CEAAB"/>
</linearGradient>
<linearGradient id="paint3_linear_487_8523" x1="209.733" y1="123.254" x2="157.72" y2="100.181" gradientUnits="userSpaceOnUse">
<stop stop-color="#17CE92"/>
<stop offset="1" stop-color="#2CEAAB"/>
</linearGradient>
<linearGradient id="paint4_linear_487_8523" x1="108.5" y1="180.29" x2="57.029" y2="167.156" gradientUnits="userSpaceOnUse">
<stop stop-color="#17CE92"/>
<stop offset="1" stop-color="#2CEAAB"/>
</linearGradient>
</defs>
</svg>
